<svg width="181" height="240" viewBox="0 0 181 240" fill="none" xmlns="http://www.w3.org/2000/svg">
<mask id="mask0_69_580" style="mask-type:alpha" maskUnits="userSpaceOnUse" x="0" y="-97" width="307" height="337">
<path d="M306.07 -97H0V239.102H306.07V-97Z" fill="white"/>
<path d="M56.7766 35.2269C56.8144 36.2091 56.8521 37.1912 56.9025 38.1608L54.8123 39.7474C55.4293 38.2238 56.084 36.7127 56.7766 35.2269Z" fill="black"/>
<path d="M53.7293 42.4799L56.9906 39.9993C57.2802 45.7286 57.4061 51.483 54.8374 55.1095C53.7797 56.5953 52.6842 58.3834 51.6139 60.2847C51.1102 58.95 50.531 57.3005 49.9014 55.5124C50.8961 51.0675 52.1679 46.7107 53.7293 42.4799Z" fill="black"/>
<path d="M58.4639 38.8912L70.8543 29.4599C71.4335 34.5974 72.2142 40.0496 73.0201 41.3466C73.1838 43.1976 63.2488 54.3792 53.2509 64.4904C53.125 64.0749 53.0116 63.7349 52.8983 63.5082C52.7598 63.2438 52.5709 62.7779 52.3191 62.1609C53.5405 59.8692 54.8375 57.716 56.0715 55.9909C59.1187 51.7223 58.8039 45.2123 58.4639 38.8912Z" fill="black"/>
<path d="M49.322 58.3833C49.8383 59.8062 50.2916 61.0654 50.682 62.0602C49.6998 63.9363 48.7806 65.8881 47.9873 67.7768C48.2769 64.6037 48.7302 61.4683 49.322 58.3833Z" fill="black"/>
<path d="M53.0242 109.997C50.6192 103.047 48.9444 95.7685 48.126 88.226C48.1512 88.2638 48.2015 88.3142 48.2267 88.3519C48.34 88.629 48.6171 88.9689 48.9696 89.4222C50.0022 90.7318 51.9917 94.1064 53.9056 97.544C53.5153 101.876 53.1501 107.038 53.0242 109.997Z" fill="black"/>
<path d="M50.1911 88.5156C50.1407 88.3771 50.0274 88.2009 49.8511 87.9742L49.8637 87.9616C49.8259 87.9112 49.7756 87.8735 49.7378 87.8231C49.3978 87.3824 48.8564 86.7528 48.0631 85.8084C48.0001 85.7329 47.9497 85.6699 47.8868 85.5943C47.6601 82.8493 47.509 80.0791 47.509 77.2711C47.509 75.886 47.5594 74.5009 47.6098 73.1284C48.4282 70.4212 49.8133 67.1347 51.4251 63.9364C51.4755 64.0371 51.5132 64.1378 51.551 64.2134C52.7598 66.6436 55.4671 87.1683 54.7242 90.7066C54.5605 91.4999 54.359 93.0235 54.1701 94.8997C52.5961 92.1421 51.0851 89.6615 50.1911 88.5156Z" fill="black"/>
<path d="M54.8122 113.838C54.6359 112.805 54.5351 112.151 54.4974 112.025C54.4218 111.395 54.7618 105.439 55.2151 99.9238C56.6128 102.48 57.8216 104.809 58.3756 106.006C59.1815 107.731 60.8311 110.388 62.4302 112.969C63.8783 115.298 65.3767 117.716 66.17 119.328C67.4166 121.834 68.021 124.742 68.6002 127.563C68.8017 128.507 68.9906 129.452 69.2046 130.384C69.6328 132.222 69.3935 135.231 69.1669 137.876C69.1291 138.367 69.0913 138.845 69.0535 139.299C63.362 132.083 58.6275 124.075 55.064 115.462C55.001 114.921 54.9129 114.392 54.8122 113.838Z" fill="black"/>
<path d="M59.5467 137.624C59.0682 136.818 58.1868 132.889 56.915 125.939C60.3526 132.323 75.8154 151.173 79.3033 154.283C70.4261 150.128 60.7807 139.739 59.5467 137.624Z" fill="black"/>
<path d="M79.5425 150.656C83.4082 149.41 91.0514 152.319 99.5132 158.451C104.487 162.052 110.317 166.774 114.989 170.577C116.185 171.546 117.205 172.377 118.086 173.095C103.555 168.562 90.4344 160.793 79.5425 150.656Z" fill="black"/>
<path d="M140.059 186.48C135.488 188.004 131.169 189.439 129.381 189.943C127.052 190.598 125.276 189.15 122.821 187.135C121.096 185.725 119.144 184.113 116.575 182.992C110.393 180.285 106.527 176.696 103.115 173.536C102.485 172.944 101.818 172.352 101.15 171.748C99.123 169.922 97.0453 168.046 95.2825 165.981C104.248 171.307 114.095 175.311 124.533 177.729C124.961 178.044 125.427 178.396 125.881 178.724C130.955 182.526 136.143 186.216 139.152 185.951C140.273 185.851 141.369 185.762 142.426 185.674C141.696 185.939 140.903 186.203 140.059 186.48Z" fill="black"/>
<path d="M159.715 184.617C158.909 183.987 156.567 183.723 153.621 183.685C154.351 183.471 154.88 183.332 155.144 183.294C155.648 183.433 156.932 183.332 162.233 182.74C164.966 182.438 168.706 182.01 169.159 182.073C169.386 182.186 170.67 182.929 172.345 183.899C166.842 184.717 160.596 185.322 159.715 184.617Z" fill="black"/>
<path d="M178.099 182.942C177.129 183.131 175.984 183.345 174.737 183.546C172.345 182.149 170.166 180.902 169.839 180.726C169.348 180.474 168.101 180.562 162.057 181.242C159.614 181.519 156.315 181.872 155.597 181.846C155.194 181.645 154.288 181.821 148.168 183.811C144.945 183.962 141.62 184.226 139.001 184.453C136.684 184.667 131.572 181.078 128.109 178.51C134.493 179.756 141.079 180.424 147.816 180.424C166.225 180.424 183.501 175.55 198.473 167.076C198.523 169.305 198.611 171.974 198.737 175.198C193.046 177.427 179.56 182.652 178.099 182.942Z" fill="black"/>
<path d="M125.931 175.148C129.734 173.359 136.042 173.196 138.712 174.745C141.381 176.306 148.886 177.049 154.162 177.049C156.038 177.049 157.625 176.961 158.62 176.772C159.715 176.57 161.705 176.407 163.959 176.268C158.708 177.124 153.318 177.578 147.828 177.578C140.311 177.59 132.983 176.722 125.931 175.148Z" fill="black"/>
<path d="M248.16 77.2585C248.16 88.3519 246.322 99.0047 242.985 108.99C241.927 101.926 242.582 98.3373 243.715 93.7664C244.37 91.1599 244.206 87.6216 243.753 84.1463L244.118 84.247C245.956 77.5859 242.393 56.696 239.157 51.3697L238.338 53.0822C240.907 57.313 243.312 71.6426 243.098 80.0413C242.745 78.1526 242.38 76.4023 242.078 75.0172C241.94 74.3498 241.814 73.7706 241.713 73.2921L240.227 73.5943C240.844 74.6394 240.454 74.6646 240.592 75.332C241.587 79.9658 243.438 88.5912 242.229 93.4013C242.04 94.182 241.851 94.9375 241.7 95.693C237.369 94.2449 233.755 90.2911 233.755 87.1179C233.755 83.1011 230.947 64.9059 230.708 63.4201L230.091 65.1955C230.494 67.5124 232.231 83.2522 232.244 87.1179C232.256 91.2103 236.727 96.587 241.234 98.4128C240.756 101.888 240.806 105.804 241.965 111.999C234.07 133.317 219.136 151.248 199.984 162.946C199.958 160.012 200.009 157.834 200.16 157.166C200.739 156.713 202.074 155.328 206.091 151.085C209.541 147.445 213.822 142.925 216.038 140.91C216.806 140.205 217.751 139.374 218.783 138.467C224.752 133.192 229.763 128.621 230.682 126.165C231.161 124.906 231.375 123.168 231.614 121.317C231.954 118.598 231.488 115.298 232.773 113.599L232.408 112.893C230.884 114.921 230.468 118.22 230.103 121.129C229.877 122.879 229.675 124.541 229.26 125.624C228.391 127.928 222.007 133.582 217.763 137.322C216.731 138.241 215.786 139.072 215.006 139.777C213.948 140.734 212.487 142.207 210.863 143.869C210.347 140.533 210.019 134.803 212.55 133.393C216.882 130.975 219.564 120.058 219.677 119.567L221.579 109.96L220.836 110.803L218.191 119.24C217.474 122.211 214.93 130.321 211.807 132.058C207.677 134.363 209.113 143.038 209.553 145.204C208.055 146.766 206.468 148.428 204.97 150.014C202.338 152.797 199.618 155.668 199.228 155.945C198.825 156.121 198.359 156.348 198.435 163.815C193.247 166.862 187.782 169.469 182.053 171.546C184.483 169.066 187.165 166.044 188.323 164.734L194.242 149.548L194.191 149.322C193.952 148.314 193.562 145.418 194.531 144.071C194.833 143.643 195.249 143.416 195.816 143.366C199.858 142.963 205.058 136.453 205.297 136.201L204.693 135.634C203.157 137.271 198.548 141.578 195.665 141.867C194.67 141.968 193.851 142.434 193.297 143.202C191.912 145.129 192.466 148.465 192.668 149.448L187.089 163.84C184.08 167.265 180.705 170.866 178.741 172.68C177.003 173.246 175.253 173.762 173.49 174.241C172.156 174.316 170.657 174.392 169.222 174.468C164.865 174.682 160.37 174.896 158.342 175.273C154.401 176.004 142.602 175.248 139.467 173.422C135.979 171.395 127.782 171.811 123.778 174.644C123.161 174.493 122.544 174.329 121.927 174.165C120.441 173.032 118.174 171.194 115.946 169.38C115.48 169.003 114.989 168.6 114.497 168.209C114.611 168.058 114.724 167.895 114.825 167.744C116.84 164.873 118.3 162.782 123.022 164.608C128.134 166.585 137.641 169.796 143.811 169.103C146.38 168.814 151.266 169.053 156 169.28C159.513 169.456 162.082 169.569 163.92 169.569C166.036 169.569 167.169 169.418 167.673 169.053C168.013 168.801 168.743 168.235 169.688 167.492C172.067 165.628 177.683 160.34 178.628 160.1L179.421 158.904C179.408 158.904 179.396 158.904 179.383 158.904C178.565 158.904 176.689 160.063 168.743 166.295C167.811 167.026 167.094 167.58 166.791 167.819C165.986 168.26 160.256 167.97 156.076 167.769C151.291 167.529 146.33 167.29 143.648 167.592C137.591 168.285 127.593 164.747 123.589 163.198C117.759 160.944 115.643 163.953 113.591 166.875C113.503 167.001 113.415 167.127 113.326 167.252C109.184 163.903 104.525 160.176 100.407 157.204C92.7765 151.689 83.3326 147.08 78.3463 149.511C75.5761 146.854 72.9444 144.046 70.489 141.087C70.5267 140.13 70.6149 139.059 70.703 137.989C70.9423 135.093 71.1941 132.096 70.703 130.018C70.489 129.099 70.3001 128.167 70.0986 127.236C69.4942 124.327 68.8772 121.305 67.5299 118.635C66.6988 116.961 65.1752 114.518 63.7146 112.151C62.1406 109.607 60.5162 106.988 59.7355 105.338C59.0052 103.777 57.2675 100.49 55.4291 97.1788C55.6684 94.5849 55.9202 92.3436 56.1594 91.1599C57.0409 89.9385 63.639 80.885 66.0566 78.4547C68.8268 75.6845 67.404 74.9542 64.9863 77.3845C63.022 79.3488 58.6652 85.1788 56.3357 88.3394C56.2602 82.7612 54.8373 71.5922 53.6663 66.2281C62.2035 57.6404 75.9161 43.2102 74.3421 40.654C73.6747 39.5585 72.8814 34.0937 72.2644 28.3896L74.2413 26.8911L74.4302 26.6897C74.7702 26.123 82.8919 12.8764 84.9192 7.55007C86.6947 2.87849 90.9633 0.574186 93.3558 -0.382794C94.1616 -0.710182 96.34 -1.78049 98.8584 -3.02708C101.956 -4.55069 105.721 -6.41429 107.333 -7.05647C108.718 -5.72174 111.123 -5.59582 109.184 -7.40904C112.961 -7.66088 122.783 -7.44682 129.608 -7.19498C130.439 -6.31355 133.448 -3.31669 136.558 -2.28416C140.072 -1.11312 146.871 -2.35971 147.186 -2.3723L147.778 -3.0019C147.702 -3.0019 140.286 -2.63673 137.024 -3.71963C133.839 -4.77735 130.539 -8.41639 130.502 -8.45417L130.288 -8.69341L129.973 -8.70601C127.895 -8.78156 109.612 -9.44892 107.27 -8.66823C105.872 -8.20233 101.78 -6.18763 98.1784 -4.39959C95.7986 -3.21596 93.5446 -2.10787 92.7891 -1.80567C88.2687 0.00755653 84.957 3.13033 83.4963 6.99603C81.6202 11.932 74.0399 24.398 73.2088 25.7579L72.0881 26.6141C71.8237 24.0832 71.597 21.59 71.4334 19.4997L70.7786 20.3182C70.8415 21.1241 70.2623 23.8187 70.6653 27.697L58.363 37.0528C58.2875 35.4158 58.2245 33.7789 58.2371 32.2049C66.787 15.2941 79.9454 1.11564 96.0756 -8.64304C102.296 -11.6903 109.99 -14.6997 113.49 -14.1583C117.242 -13.579 122.405 -15.0397 126.56 -16.2233C128.865 -16.8781 130.842 -17.4447 131.862 -17.4447C132.705 -17.4447 134.078 -17.5077 135.69 -17.5707C139.618 -17.7344 145.549 -17.9862 147.639 -17.4699C150.069 -16.8655 157.637 -18.4395 165.457 -20.2275C166.288 -20.4164 166.943 -20.5675 167.383 -20.6557C167.66 -20.7186 168.239 -20.7564 169.045 -20.7816C183.677 -17.621 197.113 -11.2621 208.622 -2.47304C207.929 0.0831042 207.74 2.94146 209.188 5.09466C212.122 9.45144 214.754 19.6634 214.792 19.7768L215.396 19.0716C215.283 18.6435 213.532 8.82185 210.447 4.25101C209.402 2.70221 209.465 0.59937 209.931 -1.44051C213.91 1.70745 217.65 5.14503 221.113 8.84703C221.843 10.4588 222.296 11.6802 222.372 12.3098C222.787 16.0244 232.408 31.0213 236.097 32.8471C236.714 33.1493 237.469 33.5019 238.288 33.867C244.609 47.0003 248.16 61.7202 248.16 77.2585Z" fill="black"/>
</mask>
<g mask="url(#mask0_69_580)">
<path d="M259.518 56.331L248.362 36.3855L248.11 36.2847C248.059 36.2596 244.546 34.887 241.209 33.4642C236.022 22.4463 228.945 12.4861 220.382 4.01183C216.378 -3.56846 209.868 -13.856 205.713 -17.1047C205.058 -17.621 204.139 -18.0869 203.031 -18.515L203.56 -18.9179C203.383 -19.1446 201.507 -21.6378 199.115 -24.7102C200.601 -24.1813 202.162 -23.5391 203.371 -23.0229C204.832 -22.4059 206.103 -21.877 206.934 -21.6378C209.78 -20.8319 220.131 -20.3786 221.705 -20.8193C222.624 -20.7815 227.207 -17.8854 231.98 -14.5486L229.197 2.60155L229.159 2.80302L229.235 2.99189C229.436 3.52075 234.246 15.9489 237.318 20.0413C237.81 20.7086 238.376 21.4264 238.968 22.1945C241.814 25.8965 246.435 30.8073 247.039 33.5397L247.808 33.376C247.14 30.3036 243.274 25.2921 240.177 21.2627C239.598 20.5072 239.031 19.7768 238.54 19.122C235.795 15.4704 231.363 4.23849 230.733 2.63932L233.365 -13.579C233.906 -13.1886 234.448 -12.8109 234.976 -12.4205L241.058 9.53965L241.713 9.38855L236.324 -13.3146L236.097 -13.4782C230.242 -17.7469 222.913 -22.7207 221.377 -22.3051C220.143 -21.9651 210.007 -22.3429 207.337 -23.0984C206.594 -23.3125 205.36 -23.8287 203.95 -24.4206C201.457 -25.4657 199.253 -26.3345 197.465 -26.813C194.683 -30.3765 191.61 -34.217 189.822 -36.1939L189.595 -36.4458H175.304L175.052 -36.408C171.463 -35.1488 161.692 -31.8875 159.614 -31.8875C158.179 -31.8875 156.303 -30.8298 154.124 -29.6084C151.984 -28.3996 149.553 -27.0397 147.929 -27.0397C147.879 -27.0397 147.828 -27.0397 147.778 -27.0397C146.821 -27.0397 145.763 -26.5486 144.731 -25.8057C108.063 -24.7102 76.1555 -4.41212 58.7409 25.3802C59.4587 18.0014 60.7682 7.37386 62.1785 5.00659C63.2362 3.23114 65.6916 1.01497 68.0715 -1.12564C70.6276 -3.44254 73.2845 -5.83499 74.4556 -7.88746C75.3622 -9.47404 78.6612 -12.7479 82.1744 -15.8959C83.4084 -15.8581 88.0673 -15.7322 91.9205 -15.7322C94.2122 -15.7322 96.2143 -15.7825 97.0202 -15.9085C98.2416 -16.1099 99.9289 -17.3943 101.868 -18.8801C103.895 -20.4289 106.187 -22.1792 107.635 -22.3681C107.786 -22.3933 123.387 -24.9872 123.954 -25.8434L123.211 -26.3471L119.333 -25.4153C118.502 -25.0753 110.582 -24.282 107.446 -23.8917C105.583 -23.665 103.228 -21.8518 100.936 -20.1016C99.2993 -18.855 97.612 -17.558 96.7683 -17.4195C95.2573 -17.1677 88.4703 -17.2558 83.8491 -17.3817C87.5889 -20.643 91.1775 -23.4636 92.0212 -23.7154C94.0988 -23.8917 108.139 -28.6514 116.538 -31.535L115.933 -32.9326C107.295 -29.961 93.2552 -25.2642 92.0716 -25.2013C90.0065 -25.5664 74.9341 -11.8035 73.1334 -8.63038C72.0757 -6.77938 69.5322 -4.47507 67.0516 -2.23372C64.4828 0.0831775 62.0526 2.28675 60.8816 4.23849C58.892 7.55014 57.381 23.2774 56.9277 28.6037C53.2131 35.504 50.2792 42.8829 48.2142 50.6017C46.1365 44.5324 44.1344 38.3372 43.8448 36.864L43.3033 37.8335C43.6433 39.5082 45.2047 46.5093 47.5468 53.2963C45.7084 61.0025 44.701 69.0235 44.701 77.2838C44.701 78.5807 44.7514 79.8525 44.8018 81.1369C44.3736 80.3688 44.0211 79.6636 43.6811 78.9837C42.9885 77.586 42.3338 76.2764 41.2635 74.8787C40.4576 73.821 39.3873 71.4286 38.254 68.8976C35.9119 63.6594 33.2676 57.7161 30.2204 56.7465C30.0567 56.6961 29.9308 56.5072 29.8301 56.1924C28.4324 51.7475 35.5971 31.8902 41.2635 24.4736L40.5205 23.9069C34.8542 31.3235 26.6947 51.3194 28.3694 56.6457C28.6968 57.6657 29.3012 58.056 29.7545 58.1945C32.147 58.9627 34.8668 65.0571 36.8563 69.5146C38.0777 72.247 39.1228 74.6017 40.042 75.7979C41.0242 77.0697 41.616 78.2659 42.3086 79.651C42.9885 81.011 43.7315 82.4968 44.9529 84.2597C45.8343 97.393 49.1711 109.846 54.5353 121.192C56.3863 131.819 57.5573 137.221 58.2499 138.405C58.6024 139.009 59.5972 140.243 60.9949 141.767C57.1166 140.558 53.7546 138.228 52.8228 135.886C52.5709 135.269 52.2687 134.451 51.9162 133.506C50.5311 129.804 48.4282 124.226 46.7157 122.01C44.8395 119.58 42.1953 109.657 41.7671 107.504C41.3894 105.641 39.1228 94.9627 38.9214 93.968C38.8584 93.6532 37.4229 93.7917 37.4229 93.7917C37.4985 94.2954 39.8909 105.905 40.2687 107.806C40.6465 109.72 43.3411 120.134 45.5069 122.954C47.0683 124.982 49.1208 130.447 50.4807 134.048C50.8333 134.992 51.1481 135.823 51.3999 136.453C52.7094 139.727 57.6329 142.862 62.9466 143.832C67.8826 148.805 75.7399 155.366 82.5899 157.091C85.5364 159.509 88.634 161.737 91.8323 163.828C93.9981 167.328 97.1209 170.161 100.156 172.894C100.81 173.485 101.465 174.077 102.095 174.657C105.595 177.905 109.562 181.595 115.983 184.403C118.351 185.435 120.214 186.971 121.864 188.319C124.004 190.082 125.906 191.643 128.248 191.643C128.739 191.643 129.255 191.567 129.797 191.416C131.623 190.9 135.954 189.465 140.55 187.941C143.031 187.122 145.889 186.165 148.433 185.334C154.124 185.083 158.04 185.246 158.783 185.825C159.325 186.254 160.622 186.43 162.309 186.43C165.797 186.43 170.922 185.712 174.46 185.133C176.852 186.531 179.472 188.054 180.932 188.91L181.121 189.024L181.511 187.488C180.894 187.122 178.943 185.977 176.802 184.73C177.772 184.554 178.389 184.44 178.426 184.44C180.34 184.063 197.856 177.2 199.845 176.419L200.349 176.218L200.324 175.676C200.198 172.491 200.097 169.166 200.034 166.195C203.383 164.218 206.62 162.09 209.705 159.76C211.782 159.03 213.822 158.149 215.736 157.204C216.806 158.803 219.816 162.946 222.397 163.311C222.523 163.324 222.649 163.336 222.775 163.336C223.379 163.336 223.946 163.122 224.399 162.707C227.182 160.189 235.354 151.16 236.21 149.951C236.412 149.674 236.928 148.818 237.721 147.521C239.938 143.882 244.861 134.161 246.448 133.368L246.737 132.058C245.088 132.877 241.423 138.518 236.412 146.728C235.669 147.949 235.14 148.818 234.964 149.07C234.145 150.216 226.011 159.194 223.367 161.574C223.14 161.775 222.901 161.838 222.599 161.8C221.012 161.586 218.569 158.677 217.096 156.512C222.183 153.867 226.15 151.009 227.094 150.039C228.001 149.108 228.806 146.224 229.94 141.943C230.267 140.696 230.62 139.362 230.947 138.279C232.571 136.075 234.108 133.796 235.556 131.467C240.567 125.334 242.116 122.828 241.751 121.544C242.154 120.915 244.836 119.605 246.624 118.736C249.923 117.124 253.335 115.462 254.229 113.687C255.791 110.564 257.818 93.9554 257.78 90.8452L257.025 91.5503C257.063 94.522 254.33 110.111 252.882 113.007C252.227 114.316 248.764 116.016 245.969 117.376C244.32 118.182 242.947 118.862 241.927 119.504C247.745 106.598 251.006 92.3059 251.006 77.2712C251.006 62.4128 247.82 48.2848 242.141 35.5166C244.458 36.4862 246.586 37.3299 247.316 37.6069L255.3 51.8483C254.909 53.3845 253.058 60.8011 253.562 63.672C253.889 65.5104 253.952 66.8074 254.04 68.4443C254.116 69.8042 254.192 71.3404 254.431 73.5062L255.942 73.3299C255.703 71.2145 255.627 69.6909 255.551 68.3688C255.463 66.7444 255.4 65.3341 255.06 63.4076C254.733 61.5314 255.677 56.8094 256.383 53.7874L258.158 56.9479C258.196 57.0739 262.477 69.3887 262.011 74.1106C261.533 79.0466 261.709 85.884 262.011 88.7172L262.54 87.2439C262.276 84.8137 263.044 79.2733 263.522 74.2617C264.001 69.2124 259.757 56.9605 259.518 56.331Z" fill="#868C3E"/>
<path d="M58.7409 102.417C58.4513 102.984 57.998 103.563 57.2677 103.915C56.5247 104.268 52.8731 104.595 53.0494 100.793C53.2257 96.9899 58.9172 97.8714 58.9424 100.201C58.9675 101.536 58.9172 102.064 58.7409 102.417Z" fill="#CBC49C"/>
<path d="M65.6789 79.8777C65.3893 80.4443 64.936 81.0235 64.2056 81.3761C63.4627 81.7287 59.8111 82.0561 59.9874 78.2533C60.1637 74.4506 65.8552 75.332 65.8804 77.6615C65.893 78.9962 65.8426 79.5377 65.6789 79.8777Z" fill="#CBC49C"/>
<path d="M65.6789 116.646C65.3893 117.212 64.936 117.792 64.2056 118.144C63.4627 118.497 59.8111 118.824 59.9874 115.022C60.1637 111.219 65.8552 112.1 65.8804 114.43C65.893 115.764 65.8426 116.293 65.6789 116.646Z" fill="#CBC49C"/>
<path d="M63.7526 145.658C63.463 146.224 63.0097 146.803 62.2794 147.156C61.5365 147.509 57.8848 147.836 58.0611 144.033C58.2374 140.23 63.9289 141.112 63.9541 143.441C63.9793 144.776 63.9289 145.318 63.7526 145.658Z" fill="#CBC49C"/>
<path d="M53.8554 124.327C53.5658 124.893 53.1125 125.473 52.3822 125.825C51.6392 126.178 47.9876 126.505 48.1639 122.703C48.3402 118.9 54.0317 119.781 54.0569 122.111C54.0821 123.433 54.0317 123.974 53.8554 124.327Z" fill="#CBC49C"/>
<path d="M56.8146 128.243C56.525 128.81 56.0717 129.389 55.3414 129.741C54.5985 130.094 50.9468 130.421 51.1231 126.619C51.2994 122.816 56.9909 123.697 57.0161 126.027C57.0413 127.362 56.9909 127.903 56.8146 128.243Z" fill="#CBC49C"/>
<path d="M79.53 148.176C79.2404 148.743 78.787 149.322 78.0567 149.674C77.3138 150.027 73.6622 150.354 73.8384 146.552C74.0147 142.749 79.7062 143.63 79.7314 145.96C79.744 147.294 79.6937 147.836 79.53 148.176Z" fill="#CBC49C"/>
<path d="M95.6603 165.792C95.3707 166.358 94.9174 166.938 94.1871 167.29C93.4442 167.643 89.7925 167.97 89.9688 164.167C90.1451 160.365 95.8366 161.246 95.8618 163.576C95.8744 164.91 95.824 165.439 95.6603 165.792Z" fill="#CBC49C"/>
<path d="M116.437 165.175C116.147 165.741 115.694 166.321 114.963 166.673C114.221 167.026 110.569 167.353 110.745 163.55C110.921 159.748 116.613 160.629 116.638 162.959C116.651 164.293 116.6 164.835 116.437 165.175Z" fill="#E4DFC5"/>
<path d="M181.272 174.619C180.983 175.185 180.529 175.765 179.799 176.117C179.056 176.47 175.404 176.797 175.581 172.994C175.757 169.192 181.448 170.073 181.474 172.403C181.499 173.737 181.448 174.279 181.272 174.619Z" fill="#E4DFC5"/>
<path d="M173.012 164.495C172.722 165.062 172.269 165.641 171.539 165.993C170.796 166.346 167.144 166.673 167.32 162.871C167.497 159.068 173.188 159.949 173.213 162.279C173.226 163.613 173.188 164.155 173.012 164.495Z" fill="#E4DFC5"/>
<path d="M163.606 181.758C163.316 182.325 162.863 182.904 162.133 183.257C161.39 183.609 157.738 183.937 157.914 180.134C158.091 176.331 163.782 177.213 163.807 179.542C163.833 180.877 163.782 181.418 163.606 181.758Z" fill="#E4DFC5"/>
<path d="M130.288 172.1C129.998 172.667 129.545 173.246 128.815 173.599C128.072 173.951 124.42 174.279 124.596 170.476C124.773 166.673 130.464 167.555 130.489 169.884C130.502 171.219 130.451 171.76 130.288 172.1Z" fill="#E4DFC5"/>
<path d="M38.8207 95.0886L36.1135 93.4265C36.1135 93.4265 36.252 92.394 36.0002 91.6007C35.7483 90.8074 32.4744 87.4202 30.7116 86.2366C28.9361 85.0655 27.8155 84.3856 26.5311 83.5167C25.2593 82.6479 23.2698 82.3709 22.4387 82.0183C21.6077 81.6657 19.6182 81.3887 18.4219 81.7287C17.2257 82.0687 16.105 82.5597 16.2184 83.2901C16.3317 84.033 17.0368 85.4811 19.6434 87.9616C22.2499 90.4422 25.6874 92.117 27.7903 93.2124C29.8931 94.2953 33.5196 94.8116 34.3884 94.7612C35.2698 94.7109 35.7357 94.5346 35.7357 94.5346C35.7357 94.5346 36.7557 94.6101 37.4104 95.1768C38.04 95.756 38.8207 95.0886 38.8207 95.0886Z" fill="#74874E"/>
<path d="M40.5583 25.4557C40.0547 24.2721 39.8028 23.6929 39.2614 22.61C39.2614 22.61 39.828 21.993 39.9791 21.313C40.1302 20.6331 38.7703 16.7548 37.5741 15.3193C36.3778 13.8838 35.5342 13.1409 34.5772 12.2343C33.6328 11.3277 31.9329 10.7988 31.2656 10.4211C30.6108 10.0433 29.0116 9.61519 27.9791 9.7537C26.9466 9.89221 25.914 10.1063 25.8007 10.6477C25.6874 11.1892 25.8511 12.2721 27.5006 13.8964C29.1501 15.5208 31.6433 17.0066 32.9529 18.3413C34.2624 19.6761 36.7178 21.9678 37.3852 22.4463C38.0526 22.9374 38.4681 23.1137 38.4681 23.1137C38.4681 23.1137 39.1984 23.781 39.4251 24.5995C39.6517 25.418 40.5583 25.4557 40.5583 25.4557Z" fill="#74874E"/>
<path d="M71.0813 21.2878C70.5776 20.1042 70.3258 19.525 69.7843 18.4421C69.7843 18.4421 70.351 17.8251 70.5021 17.1451C70.6532 16.4651 69.2932 12.5869 68.097 11.1514C66.9008 9.71592 66.0571 8.973 65.1002 8.06638C64.1558 7.15977 62.4559 6.63092 61.7885 6.25316C61.1337 5.8754 59.5346 5.44728 58.502 5.58579C57.4695 5.7243 56.437 5.93836 56.3236 6.47981C56.2103 7.02126 56.374 8.10416 58.0235 9.72851C59.6731 11.3529 62.1663 12.8387 63.4758 14.1734C64.7854 15.5082 67.2408 17.7999 67.9081 18.2784C68.5755 18.7695 68.991 18.9457 68.991 18.9457C68.991 18.9457 69.7214 19.6131 69.948 20.4316C70.1747 21.2626 71.0813 21.2878 71.0813 21.2878Z" fill="#5D7333"/>
<path d="M39.8408 25.4305C40.6467 24.4357 41.0496 23.9447 41.8681 23.0506C41.8681 23.0506 41.4904 22.2951 41.5407 21.6026C41.5785 20.91 43.9584 17.548 45.5072 16.5029C47.0434 15.4578 48.0759 14.9667 49.2343 14.3623C50.3928 13.7579 52.1808 13.7201 52.9112 13.5312C53.6415 13.3549 55.3036 13.3675 56.2606 13.7956C57.2176 14.2112 58.1494 14.7022 58.1116 15.2437C58.0738 15.7851 57.6079 16.7925 55.5806 17.9006C53.5533 19.0087 50.7454 19.7516 49.121 20.6708C47.4967 21.59 44.4998 23.1136 43.7191 23.4032C42.9384 23.6802 42.4977 23.7432 42.4977 23.7432C42.4977 23.7432 41.6037 24.1839 41.163 24.9142C40.7222 25.6446 39.8408 25.4305 39.8408 25.4305Z" fill="#74874E"/>
<path d="M31.9204 42.3791C32.3233 41.4347 32.5248 40.9688 32.9529 40.1C32.9529 40.1 32.4996 39.6089 32.3737 39.0675C32.2478 38.526 33.3307 35.4284 34.2751 34.2826C35.2195 33.1367 35.8994 32.5323 36.6549 31.8146C37.4105 31.0968 38.7704 30.6687 39.2866 30.3665C39.8155 30.0643 41.0873 29.7117 41.9057 29.8251C42.7368 29.9384 43.5553 30.1021 43.6434 30.5302C43.7316 30.9583 43.6056 31.8272 42.2961 33.1241C40.9865 34.4211 38.997 35.6173 37.9519 36.6876C36.9068 37.7579 34.955 39.5963 34.4136 39.9741C33.8847 40.3644 33.5448 40.5029 33.5448 40.5029C33.5448 40.5029 32.9529 41.0444 32.7892 41.6866C32.6507 42.3414 31.9204 42.3791 31.9204 42.3791Z" fill="#74874E"/>
<path d="M37.8008 94.5471L40.0925 92.3561C40.0925 92.3561 39.7399 91.3866 39.8155 90.5429C39.891 89.7118 42.3716 85.7076 43.8449 84.184C45.3181 82.6604 46.2877 81.7538 47.3454 80.6457C48.4031 79.525 50.2919 78.8325 51.0348 78.3036C51.7777 77.7748 53.6539 77.0822 54.9005 77.1704C56.1471 77.2585 57.3433 77.4852 57.3937 78.2281C57.4441 78.971 57.0537 80.5324 55.0516 83.5166C53.0369 86.4883 50.0275 88.8682 48.2142 90.3792C46.401 91.8902 42.9634 93.162 42.0946 93.3005C41.2258 93.4264 40.7347 93.3761 40.7347 93.3761C40.7347 93.3761 39.7525 93.6657 39.2363 94.3582C38.72 95.0256 37.8008 94.5471 37.8008 94.5471Z" fill="#5D7333"/>
<path d="M126.586 175.651C125.742 175.261 126.284 175.211 124.949 175.538C123.627 175.878 117.28 177.414 112.067 177.49C106.842 177.565 102.46 176.52 98.5437 174.329C94.6276 172.138 89.3264 167.567 88.0673 166.333C86.7955 165.099 85.2719 163.828 85.8763 163.664C86.4933 163.5 86.9844 163.714 87.4754 164.029C87.9791 164.344 91.3411 166.17 95.635 166.862C99.9288 167.555 107.799 168.323 109.839 168.864C111.878 169.406 123.173 172.831 125.553 173.083C126.989 173.234 128.097 173.108 128.764 172.994C128.915 172.969 128.991 173.158 128.877 173.246C128.336 173.649 127.568 174.266 127.278 174.694C126.825 175.374 127.253 175.966 126.586 175.651Z" fill="#5D7333"/>
<path d="M112.275 135.828C112.234 135.823 112.189 135.798 112.171 135.803C112.154 135.807 112.101 135.806 112.062 135.791C112.022 135.776 111.989 135.744 111.977 135.72C111.964 135.697 111.953 135.657 111.948 135.641C111.944 135.625 111.942 135.602 111.951 135.598C111.96 135.593 111.956 135.585 111.99 135.6C112.023 135.616 112.021 135.602 112.044 135.628C112.067 135.654 112.09 135.674 112.111 135.7C112.132 135.726 112.162 135.735 112.175 135.748C112.188 135.761 112.178 135.778 112.19 135.784C112.202 135.79 112.224 135.804 112.236 135.807C112.248 135.809 112.275 135.828 112.275 135.828Z" fill="#424D03"/>
<path d="M57.9653 91.8389C58.0973 91.8099 58.2119 91.7729 58.2409 91.7628C58.2691 91.7526 58.3127 91.675 58.3671 91.6431C58.4222 91.6105 58.7711 91.5764 58.8755 91.5836C58.9799 91.5909 59.0503 91.5902 59.1772 91.6264C59.3041 91.6627 59.2759 91.6192 59.3585 91.7048C59.4412 91.7903 59.4347 91.7693 59.352 91.8317C59.2693 91.8941 59.0089 91.9651 58.9212 91.9891C58.8334 92.013 58.6434 91.9637 58.5658 91.9448C58.4882 91.926 58.3569 91.8672 58.3381 91.865C58.3192 91.8629 58.3127 91.8433 58.2873 91.831C58.2612 91.8186 57.9573 91.8752 57.9573 91.8752L57.9653 91.8389Z" fill="#424D03"/>
<path d="M58.7537 141.515C56.4746 141.439 54.8251 142.661 54.8251 142.661C54.8251 142.661 55.1273 143.127 52.7852 142.094C50.4431 141.049 48.8691 141.527 46.59 143.429C44.3109 145.33 44.9405 146.086 42.9132 148.239C40.8859 150.392 42.5354 151.79 42.4095 153.439C42.2836 155.089 44.0087 157.242 44.9153 156.612C45.8219 155.983 47.207 155.215 47.9121 153.704C48.6173 152.18 48.8691 149.649 49.2469 148.251C49.6246 146.854 50.6446 145.846 51.526 145.078C52.4074 144.323 53.6792 143.932 54.3088 144.058C54.9384 144.184 55.5806 143.807 56.0843 143.303C56.5879 142.799 59.0182 142.673 59.0182 142.673V141.515H58.7537Z" fill="#424D03"/>
<path d="M60.8817 140.444C60.4913 139.097 62.166 137.75 61.5239 136.125C60.8691 134.501 59.8617 131.932 59.2951 130.27C58.7285 128.608 59.0684 126.367 60.2773 123.823C61.4861 121.28 61.1335 119.68 62.4556 117.918C63.7778 116.155 64.9362 113.926 65.9814 114.984C67.0139 116.041 67.5176 117.074 67.2531 120.285C66.9761 123.496 67.5176 125.17 66.7369 129.011C65.9562 132.852 64.3066 135.811 63.3245 136.579C62.3549 137.359 61.6246 140.948 61.6246 140.948L60.8817 140.444Z" fill="#424D03"/>
<path d="M119.854 130.949C119.855 130.949 119.857 130.947 119.857 130.947C119.857 130.947 119.857 130.947 119.857 130.947C119.857 130.947 119.858 130.946 119.858 130.945C119.858 130.944 119.86 130.943 119.861 130.942C119.862 130.941 119.862 130.941 119.864 130.941C119.866 130.941 119.867 130.942 119.868 130.942C119.869 130.942 119.87 130.943 119.871 130.943C119.871 130.943 119.871 130.944 119.87 130.945C119.869 130.945 119.867 130.945 119.866 130.945C119.865 130.945 119.864 130.945 119.863 130.945C119.861 130.946 119.861 130.946 119.86 130.947C119.859 130.947 119.859 130.948 119.858 130.948C119.858 130.948 119.856 130.949 119.856 130.949L119.854 130.949Z" fill="#424D03"/>
<path d="M119.773 241.037L119.075 240.466C119.075 240.466 119.123 240.535 118.655 240.608C118.183 240.68 117.712 240.209 117.252 239.608C117.014 239.293 116.672 239.106 116.445 238.777C116.219 238.444 115.799 238.094 115.992 237.441C116.186 236.788 116.325 236.987 117.11 237.278C117.896 237.568 118.987 238.384 119.217 238.755C119.446 239.127 119.51 240.2 119.51 240.2L119.875 240.632L119.773 241.037Z" fill="#424D03"/>
<path d="M65.9767 212.27C65.9289 212.228 65.9064 212.206 65.8629 212.16C65.8629 212.16 65.8737 212.104 65.8665 212.057C65.8592 212.011 65.7236 211.806 65.6366 211.743C65.5495 211.681 65.4886 211.651 65.4175 211.615C65.3464 211.579 65.2377 211.573 65.1898 211.562C65.1419 211.55 65.0317 211.547 64.9715 211.563C64.9113 211.58 64.8591 211.599 64.8772 211.621C64.8953 211.643 64.9671 211.674 65.1325 211.759C65.2979 211.845 65.4465 211.959 65.5299 212.041C65.6134 212.123 65.749 212.207 65.7845 212.214C65.8201 212.221 65.8411 212.217 65.8411 212.217C65.8411 212.217 65.8846 212.231 65.9107 212.266C65.9376 212.302 65.9767 212.27 65.9767 212.27Z" fill="#74874E"/>
<path d="M70.9803 150.581C70.4767 150.342 70.8041 150.316 70.0108 150.518C69.2175 150.719 65.4399 151.639 62.3172 151.676C59.1944 151.727 56.5753 151.097 54.2458 149.788C51.9037 148.478 48.7431 145.746 47.9876 145.015C47.2321 144.272 46.3129 143.517 46.6781 143.416C47.0432 143.315 47.3329 143.454 47.6351 143.643C47.9373 143.832 49.9394 144.927 52.5081 145.33C55.0768 145.746 59.7736 146.199 60.9824 146.526C62.2038 146.854 68.9531 148.894 70.3633 149.045C71.2196 149.133 71.887 149.057 72.2773 148.994C72.3654 148.982 72.4158 149.095 72.3403 149.145C72.0255 149.385 71.5596 149.762 71.3833 150.002C71.1314 150.405 71.3833 150.757 70.9803 150.581Z" fill="#5D7333"/>
<path d="M36.0129 65.8629C35.6729 65.4222 35.9751 65.5481 35.1818 65.3466C34.3885 65.1578 30.611 64.2008 27.8282 62.7905C25.0454 61.3802 23.0307 59.5922 21.57 57.3508C20.1094 55.0969 18.5858 51.206 18.271 50.1986C17.9436 49.1913 17.4903 48.0958 17.8554 48.1839C18.2206 48.2721 18.4221 48.5239 18.5983 48.8261C18.7746 49.1283 20.0338 51.0297 22.1241 52.6037C24.2017 54.1651 28.143 56.7716 29.0622 57.6152C29.9814 58.4589 35.0055 63.4327 36.1892 64.226C36.9069 64.7044 37.5239 64.9563 37.9016 65.0696C37.9898 65.0948 37.9772 65.2207 37.8891 65.2333C37.4987 65.2963 36.9195 65.4096 36.6425 65.5481C36.2143 65.7748 36.2773 66.2155 36.0129 65.8629Z" fill="#74874E"/>
<path d="M194.745 177.716C194.229 177.918 194.431 177.666 194.028 178.371C193.625 179.076 191.673 182.451 189.545 184.73C187.417 187.009 185.163 188.47 182.594 189.263C180.026 190.044 175.87 190.447 174.812 190.484C173.755 190.522 172.571 190.661 172.76 190.321C172.949 189.993 173.239 189.867 173.578 189.779C173.918 189.691 176.097 188.999 178.175 187.425C180.252 185.851 183.828 182.778 184.899 182.123C185.969 181.469 192.114 178.006 193.209 177.087C193.864 176.533 194.279 176.004 194.494 175.664C194.544 175.588 194.657 175.639 194.645 175.727C194.594 176.13 194.544 176.709 194.607 177.011C194.72 177.502 195.161 177.565 194.745 177.716Z" fill="#5D7333"/>
<path d="M138.07 188.558C137.516 188.571 137.793 188.407 137.176 188.936C136.559 189.465 133.587 191.983 130.817 193.418C128.047 194.854 125.428 195.458 122.746 195.332C120.063 195.206 116.021 194.174 115.014 193.859C114.007 193.532 112.848 193.267 113.138 193.015C113.428 192.764 113.742 192.751 114.095 192.789C114.448 192.827 116.727 192.902 119.207 192.121C121.688 191.341 126.095 189.653 127.329 189.402C128.563 189.15 135.514 187.954 136.848 187.462C137.654 187.16 138.221 186.795 138.536 186.556C138.611 186.505 138.699 186.581 138.662 186.669C138.485 187.034 138.234 187.563 138.196 187.865C138.12 188.344 138.511 188.545 138.07 188.558Z" fill="#5D7333"/>
<path d="M110.67 183.748C110.179 183.483 110.506 183.471 109.7 183.635C108.894 183.786 105.066 184.503 101.956 184.365C98.8461 184.239 96.2647 183.471 93.9982 182.035C91.7317 180.6 88.7348 177.704 88.0171 176.923C87.2993 176.142 86.4305 175.336 86.8083 175.261C87.1734 175.185 87.463 175.324 87.7527 175.538C88.0423 175.739 89.9814 176.948 92.525 177.502C95.0685 178.056 99.7275 178.774 100.924 179.164C102.12 179.555 108.743 181.972 110.154 182.199C111.01 182.338 111.677 182.3 112.068 182.249C112.156 182.237 112.193 182.35 112.118 182.401C111.79 182.627 111.299 182.967 111.123 183.206C110.821 183.584 111.06 183.949 110.67 183.748Z" fill="#5D7333"/>
<path d="M126.082 164.86C126.598 164.671 126.284 164.608 127.052 164.873C127.82 165.137 131.522 166.371 134.619 166.673C137.717 166.975 140.387 166.573 142.829 165.464C145.272 164.356 148.647 161.901 149.465 161.221C150.284 160.541 151.253 159.874 150.901 159.735C150.548 159.597 150.246 159.71 149.931 159.874C149.616 160.037 147.526 160.957 144.932 161.158C142.338 161.359 137.616 161.422 136.382 161.649C135.148 161.863 128.248 163.349 126.825 163.374C125.969 163.387 125.302 163.261 124.924 163.16C124.836 163.135 124.785 163.248 124.848 163.311C125.15 163.576 125.579 163.991 125.73 164.256C125.956 164.671 125.667 164.999 126.082 164.86Z" fill="#5D7333"/>
<path d="M161.44 185.334C161.956 185.146 161.642 185.083 162.41 185.347C163.178 185.611 166.88 186.845 169.977 187.148C173.075 187.45 175.744 187.047 178.187 185.939C180.63 184.831 184.005 182.375 184.823 181.695C185.642 181.015 186.611 180.348 186.259 180.21C185.906 180.084 185.604 180.184 185.289 180.348C184.974 180.512 182.884 181.431 180.29 181.632C177.696 181.834 172.974 181.897 171.74 182.123C170.506 182.338 163.606 183.823 162.183 183.849C161.327 183.861 160.659 183.735 160.282 183.635C160.194 183.609 160.143 183.723 160.206 183.786C160.508 184.05 160.936 184.466 161.088 184.73C161.314 185.158 161.037 185.485 161.44 185.334Z" fill="#5D7333"/>
<path d="M119.15 70.6472C119.142 70.6327 119.142 70.6141 119.119 70.6039C119.095 70.5938 118.984 70.5547 118.943 70.4737C118.903 70.3929 118.891 70.3238 118.99 70.3806C119.089 70.4374 119.129 70.4687 119.136 70.5052C119.144 70.5417 119.134 70.5881 119.145 70.5994C119.156 70.6107 119.17 70.6461 119.171 70.6694L119.149 70.6657L119.15 70.6472Z" fill="#424D03"/>
<path d="M47.5594 79.0088C48.6298 78.4925 49.9771 78.5681 50.7704 76.8808C51.5637 75.1935 54.6738 67.248 60.6298 64.503C66.5857 61.758 71.6225 61.1032 67.2657 68.1169C62.9089 75.1179 60.5416 77.9511 57.8848 78.4044C55.2279 78.8577 51.891 78.014 51.0474 78.8199C50.2037 79.6132 47.5972 80.4946 45.9099 80.5324L46.2247 78.9584L47.5594 79.0088Z" fill="#566117"/>
<path d="M61.396 123.434L61.5078 122.283C61.5078 122.283 61.8674 122.165 62.0881 121.953C62.3087 121.742 62.898 120.128 63.0007 119.361C63.1035 118.593 63.1427 118.112 63.2243 117.556C63.3059 117 63.0793 116.302 63.0612 115.973C63.043 115.643 62.8194 114.945 62.5111 114.61C62.2059 114.271 61.8674 113.981 61.6438 114.135C61.4202 114.293 61.0575 114.752 60.6586 116.003C60.2597 117.251 60.2627 118.65 60.2386 119.512C60.2144 120.373 60.6284 121.645 60.7886 121.923C60.9487 122.201 61.0757 122.328 61.0757 122.328C61.0757 122.328 61.2147 122.676 61.1331 122.978C61.0545 123.28 61.396 123.434 61.396 123.434Z" fill="#5D7333"/>
<path d="M59.0182 140.81C57.7842 139.538 57.142 138.971 55.8702 137.838C55.8702 137.838 56.588 136.73 56.588 135.823C56.588 134.904 53.3267 130.459 51.5261 128.268C49.7254 126.077 48.7055 124.478 47.6604 122.413C46.6152 120.348 44.7139 117.792 44.0591 116.419C43.3917 115.034 41.6415 112.188 40.269 111.131C38.8964 110.06 37.4358 109.406 37.0958 110.539C36.7558 111.66 36.4914 114.556 37.6624 120.575C38.8209 126.593 41.9311 131.441 44.0843 134.01C46.2249 136.579 51.249 138.568 52.5838 138.808C53.9185 139.047 54.6992 139.009 54.6992 139.009C54.6992 139.009 56.185 139.437 56.8398 140.382C57.482 141.326 59.0182 140.81 59.0182 140.81Z" fill="#5D7333"/>
<path d="M46.212 71.227L44.852 68.3561C44.852 68.3561 45.532 67.5754 45.7586 66.7695C45.9853 65.9637 45.1039 61.3424 44.2602 59.3907C43.4166 57.439 42.8499 56.2553 42.2581 54.8325C41.6663 53.4096 40.1553 52.0874 39.6516 51.3319C39.1479 50.5764 37.6369 49.2543 36.4407 48.8891C35.2445 48.5239 34.0482 48.3099 33.7334 48.9898C33.4312 49.6698 33.2172 51.269 34.0356 54.7695C34.8541 58.27 36.8184 61.5565 37.9769 63.6216C39.1353 65.674 41.8929 68.0917 42.6611 68.5324C43.4292 68.9605 43.9076 69.0864 43.9076 69.0864C43.9076 69.0864 44.7261 69.7034 44.9528 70.5345C45.192 71.353 46.212 71.227 46.212 71.227Z" fill="#5D7333"/>
<path d="M50.0652 52.4778L48.7053 49.6068C48.7053 49.6068 49.3853 48.8261 49.6119 48.0202C49.8386 47.2144 48.9571 42.5932 48.1135 40.6414C47.2698 38.6897 46.7032 37.506 46.1114 36.0832C45.5196 34.6603 44.0085 33.3381 43.5049 32.5826C43.0012 31.8271 41.4902 30.505 40.294 30.1398C39.0977 29.7746 37.9015 29.5606 37.5867 30.2405C37.2845 30.9205 37.0704 32.5197 37.8889 36.0202C38.7074 39.5207 40.6717 42.8072 41.8302 44.8723C42.9886 46.9247 45.7462 49.3424 46.5143 49.7831C47.2824 50.2112 47.7609 50.3371 47.7609 50.3371C47.7609 50.3371 48.5794 50.9541 48.806 51.7852C49.0327 52.5911 50.0652 52.4778 50.0652 52.4778Z" fill="#74874E"/>
<path d="M56.6212 70.5002L57.3525 70.1889C57.3525 70.1889 57.5429 70.3642 57.7424 70.4276C57.9418 70.4911 59.1083 70.3128 59.6039 70.1224C60.0996 69.932 60.4018 69.7991 60.7644 69.6631C61.127 69.5271 61.4716 69.1614 61.665 69.0436C61.8584 68.9227 62.2029 68.56 62.3056 68.2639C62.4084 67.9677 62.4719 67.6685 62.3056 67.5869C62.1394 67.5023 61.7405 67.4388 60.8581 67.6111C59.9756 67.7834 59.1325 68.2457 58.6067 68.5177C58.0808 68.7897 57.4522 69.4545 57.3344 69.6449C57.2195 69.8323 57.1863 69.9502 57.1863 69.9502C57.1863 69.9502 57.0231 70.1496 56.8146 70.198C56.6 70.2433 56.6212 70.5002 56.6212 70.5002Z" fill="#5D7333"/>
<path d="M70.1494 142.736L73.1966 141.439C73.1966 141.439 73.9899 142.17 74.8209 142.434C75.652 142.698 80.5125 141.955 82.5775 141.162C84.6426 140.369 85.9018 139.815 87.4128 139.248C88.9238 138.682 90.3593 137.158 91.1652 136.667C91.971 136.163 93.4065 134.652 93.8346 133.418C94.2628 132.184 94.5272 130.938 93.8346 130.598C93.1421 130.245 91.48 129.981 87.8031 130.698C84.1263 131.416 80.6132 133.343 78.4222 134.476C76.2312 135.609 73.6121 138.379 73.121 139.173C72.6426 139.953 72.504 140.444 72.504 140.444C72.504 140.444 71.8241 141.276 70.9552 141.477C70.0612 141.666 70.1494 142.736 70.1494 142.736Z" fill="#5D7333"/>
<path d="M57.8596 132.751C58.8795 131.844 59.3454 131.303 60.2772 130.157C60.2772 130.157 60.9949 130.648 61.7001 130.547C62.4052 130.447 66.2457 127.085 68.0086 125.448C69.7588 123.811 70.9425 123.017 72.4787 122.413C74.0023 121.809 75.6015 120.675 76.5459 120.474C77.4902 120.272 79.2783 119.605 79.8449 118.736C80.4115 117.855 80.7893 116.873 79.8953 116.117C79.0139 115.361 76.7473 113.75 72.6046 113.926C68.4619 114.102 65.3895 117.376 63.6644 119.618C61.9393 121.846 60.2646 126.467 59.975 127.588C59.6728 128.709 59.6098 129.326 59.6098 129.326C59.6098 129.326 59.1439 130.56 58.4388 131.114C57.7336 131.643 57.8596 132.751 57.8596 132.751Z" fill="#5D7333"/>
<path d="M70.9175 21.5144C71.9375 20.6078 72.4034 20.0664 73.3352 18.9205C73.3352 18.9205 74.0529 19.4116 74.758 19.3108C75.4632 19.2101 79.3037 15.8481 81.0666 14.2111C82.8294 12.5742 84.0005 11.7809 85.5367 11.1765C87.0603 10.5721 88.6594 9.43884 89.6038 9.23737C90.5482 9.0359 92.3363 8.36853 92.9029 7.49969C93.4695 6.61827 93.8473 5.6361 92.9533 4.88059C92.0592 4.12508 89.8053 2.51332 85.6626 2.68961C81.5199 2.8659 78.4475 6.13977 76.7224 8.38112C74.9973 10.6099 73.3226 15.2311 73.033 16.3518C72.7308 17.4724 72.6678 18.0894 72.6678 18.0894C72.6678 18.0894 72.2019 19.3234 71.4968 19.8775C70.8042 20.4063 70.9175 21.5144 70.9175 21.5144Z" fill="#5D7333"/>
<path d="M143.106 -2.17082C143.95 -1.10051 144.466 -0.596837 145.549 0.397919C145.549 0.397919 145.02 1.09047 145.071 1.79561C145.121 2.51335 148.269 6.54274 149.793 8.39374C151.316 10.2447 152.047 11.4662 152.563 13.0275C153.079 14.5889 154.112 16.251 154.263 17.1954C154.401 18.1524 154.968 19.9782 155.812 20.5826C156.655 21.1996 157.612 21.6278 158.431 20.7841C159.237 19.9405 160.974 17.7873 161.037 13.6319C161.1 9.48923 158.003 6.22794 155.875 4.37694C153.747 2.52594 149.239 0.586796 148.131 0.234224C147.035 -0.13094 146.418 -0.231673 146.418 -0.231673C146.418 -0.231673 145.209 -0.760533 144.706 -1.50345C144.215 -2.23378 143.106 -2.17082 143.106 -2.17082Z" fill="#5D7333"/>
<path d="M175.732 162.216C175.694 160.931 175.669 160.302 175.568 159.093C175.568 159.093 176.324 158.728 176.714 158.149C177.105 157.569 177.256 153.464 176.676 151.689C176.097 149.926 175.581 148.906 175.027 147.723C174.473 146.539 173.088 145.418 172.609 144.826C172.131 144.235 170.809 143.252 169.801 143.001C168.794 142.749 167.749 142.572 167.447 143.026C167.144 143.492 166.893 144.562 167.837 146.677C168.769 148.793 170.544 151.085 171.275 152.81C172.005 154.535 173.453 157.557 173.894 158.262C174.334 158.954 174.662 159.282 174.662 159.282C174.662 159.282 175.102 160.176 175.002 161.02C174.901 161.838 175.732 162.216 175.732 162.216Z" fill="#5D7333"/>
<path d="M175.505 162.354C176.79 161.888 177.419 161.548 178.704 160.831C178.704 160.831 179.195 161.548 179.887 161.725C180.58 161.901 185.39 160.163 187.631 159.294C189.86 158.413 191.258 158.111 192.895 158.098C194.532 158.086 196.446 157.632 197.39 157.783C198.334 157.947 200.248 157.985 201.092 157.368C201.936 156.763 202.653 155.983 202.099 154.95C201.558 153.918 200.047 151.601 196.118 150.241C192.202 148.894 188.135 150.807 185.717 152.256C183.3 153.704 180.051 157.38 179.358 158.312C178.679 159.244 178.389 159.798 178.389 159.798C178.389 159.798 177.507 160.78 176.651 161.032C175.795 161.284 175.505 162.354 175.505 162.354Z" fill="#5D7333"/>
<path d="M55.7694 126.77C55.5931 125.498 55.5176 124.868 55.4546 123.66C55.4546 123.66 54.2836 123.496 53.6162 123.03C52.9488 122.564 52.0044 118.56 52.5459 116.671C53.0873 114.782 53.6666 113.649 54.271 112.339C54.8754 111.03 56.7138 109.569 57.3056 108.864C57.8974 108.159 59.6729 106.837 61.1083 106.333C62.5438 105.817 64.0422 105.376 64.5585 105.754C65.0748 106.132 65.6288 107.126 64.6341 109.443C63.6393 111.76 61.4357 114.493 60.6676 116.381C59.8995 118.27 58.3004 121.632 57.7841 122.426C57.2552 123.231 56.8397 123.622 56.8397 123.622C56.8397 123.622 56.3486 124.617 56.6382 125.422C56.9279 126.203 55.7694 126.77 55.7694 126.77Z" fill="#5D7333"/>
<path d="M99.3118 167.24C98.8459 166.044 98.6319 165.452 98.2919 164.281C98.2919 164.281 97.1208 164.394 96.3527 164.092C95.5846 163.79 93.7462 160.113 93.8344 158.149C93.9225 156.184 94.2247 154.95 94.5143 153.527C94.7913 152.105 96.252 150.266 96.6549 149.435C97.0705 148.617 98.4808 146.917 99.7651 146.086C101.049 145.255 102.397 144.474 102.989 144.713C103.58 144.952 104.349 145.796 103.908 148.289C103.467 150.782 101.969 153.943 101.654 155.958C101.339 157.972 100.571 161.611 100.244 162.505C99.9162 163.412 99.6014 163.89 99.6014 163.89C99.6014 163.89 99.3622 164.973 99.8155 165.691C100.294 166.421 99.3118 167.24 99.3118 167.24Z" fill="#5D7333"/>
<path d="M136.559 174.946C137.327 173.914 137.717 173.422 138.523 172.503C138.523 172.503 137.805 171.571 137.654 170.766C137.503 169.96 139.631 166.447 141.356 165.477C143.069 164.507 144.278 164.105 145.625 163.601C146.972 163.085 149.314 163.336 150.221 163.248C151.14 163.16 153.319 163.462 154.704 164.105C156.089 164.747 157.461 165.477 157.575 166.107C157.688 166.736 157.386 167.832 155.044 168.789C152.702 169.746 149.226 170.149 147.35 170.954C145.474 171.76 141.986 173.045 141.054 173.246C140.122 173.448 139.543 173.435 139.543 173.435C139.543 173.435 138.498 173.8 138.145 174.581C137.78 175.336 136.559 174.946 136.559 174.946Z" fill="#5D7333"/>
<path d="M158.242 182.677C157.247 181.683 156.693 181.217 155.509 180.298C155.509 180.298 156.025 179.378 155.925 178.598C155.824 177.817 152.122 174.191 149.742 172.944C147.362 171.697 145.751 171.043 143.925 170.212C142.099 169.38 139.203 169.154 138.032 168.864C136.861 168.575 134.179 168.474 132.705 169.04C131.232 169.607 129.923 170.4 130.074 171.231C130.225 172.063 131.056 173.611 134.267 175.072C137.478 176.533 141.923 177.301 144.517 178.333C147.11 179.366 151.669 180.801 152.815 181.003C153.96 181.217 154.603 181.204 154.603 181.204C154.603 181.204 155.887 181.569 156.428 182.325C156.982 183.08 158.242 182.677 158.242 182.677Z" fill="#5D7333"/>
<path d="M177.054 173.737C178.049 172.743 178.603 172.277 179.787 171.357C179.787 171.357 179.27 170.438 179.371 169.658C179.472 168.877 183.174 165.25 185.554 164.004C187.934 162.757 189.545 162.102 191.371 161.271C193.197 160.44 196.093 160.214 197.264 159.924C198.435 159.634 201.117 159.534 202.59 160.1C204.064 160.667 205.373 161.46 205.222 162.291C205.071 163.122 204.24 164.671 201.029 166.132C197.818 167.592 193.373 168.361 190.779 169.393C188.185 170.426 183.627 171.861 182.481 172.063C181.335 172.277 180.693 172.264 180.693 172.264C180.693 172.264 179.409 172.629 178.867 173.385C178.313 174.14 177.054 173.737 177.054 173.737Z" fill="#5D7333"/>
<path d="M32.0211 59.1011C32.0841 57.8168 32.1218 57.1872 32.2478 55.9783C32.2478 55.9783 31.5048 55.588 31.1271 55.0088C30.7493 54.417 30.6864 50.312 31.316 48.5618C31.9456 46.8115 32.4744 45.8041 33.0536 44.6331C33.6329 43.462 35.0432 42.3791 35.5342 41.7873C36.0253 41.2081 37.3726 40.2511 38.38 40.0245C39.3999 39.7978 40.4451 39.6341 40.7347 40.1C41.0243 40.5659 41.2509 41.6488 40.2688 43.7391C39.2866 45.8293 37.4608 48.0833 36.6927 49.7957C35.9246 51.4956 34.401 54.4925 33.9477 55.1851C33.4944 55.8776 33.167 56.1798 33.167 56.1798C33.167 56.1798 32.7011 57.0612 32.7766 57.9049C32.8648 58.7611 32.0211 59.1011 32.0211 59.1011Z" fill="#88A94B"/>
<path d="M70.3129 138.921C70.3758 137.636 70.4136 137.007 70.5395 135.798C70.5395 135.798 69.7966 135.408 69.4188 134.829C69.0411 134.249 68.9781 130.132 69.6077 128.381C70.2373 126.631 70.7662 125.624 71.3454 124.453C71.9246 123.282 73.3349 122.199 73.826 121.607C74.3171 121.028 75.6644 120.071 76.6717 119.844C77.6917 119.618 78.7368 119.454 79.0264 119.92C79.316 120.386 79.5427 121.469 78.5605 123.559C77.5784 125.649 75.7525 127.903 74.9844 129.615C74.2163 131.315 72.6927 134.312 72.2394 135.005C71.7861 135.685 71.4587 136 71.4587 136C71.4587 136 70.9928 136.881 71.081 137.725C71.1439 138.581 70.3129 138.921 70.3129 138.921Z" fill="#5D7333"/>
<path d="M96.6802 163.752C94.9299 162.757 94.0611 162.291 92.3612 161.46C92.3612 161.46 92.4745 160.151 92.0086 159.169C91.5427 158.186 86.1534 154.673 83.3077 154.031C80.4619 153.389 78.6865 153.276 76.6466 153.061C74.6067 152.847 71.9876 153.817 70.8165 153.981C69.6455 154.144 67.2531 155.127 66.0946 156.285C64.9487 157.443 63.8659 158.69 64.2436 159.458C64.6214 160.226 65.868 161.422 69.4566 161.876C73.0453 162.316 77.5532 161.788 80.4619 162.191C83.358 162.593 88.5962 163.085 89.8932 163.047C91.1901 163.009 91.8701 162.833 91.8701 162.833C91.8701 162.833 93.4189 162.959 94.4766 163.765C95.5218 164.57 96.6802 163.752 96.6802 163.752Z" fill="#5D7333"/>
<path d="M75.6394 152.23C75.0728 150.304 74.7706 149.372 74.1158 147.584C74.1158 147.584 75.098 146.728 75.4506 145.695C75.8031 144.663 74.3551 138.392 72.7559 135.962C71.1567 133.532 69.9605 132.209 68.6384 130.635C67.3162 129.061 64.7601 127.941 63.8031 127.248C62.8461 126.543 60.4411 125.599 58.8041 125.624C57.1672 125.662 55.5303 125.813 55.2658 126.631C55.0014 127.45 55.0644 129.175 57.3309 131.983C59.61 134.791 63.2239 137.548 65.0371 139.853C66.8503 142.157 70.2627 146.149 71.2197 147.017C72.1767 147.886 72.7937 148.239 72.7937 148.239C72.7937 148.239 73.8262 149.41 74.0277 150.719C74.2292 152.016 75.6394 152.23 75.6394 152.23Z" fill="#5D7333"/>
<path d="M62.9465 55.2102C64.1176 54.6688 64.6842 54.4169 65.8175 53.9762C65.8175 53.9762 65.8175 53.1452 66.1575 52.5408C66.51 51.9364 70.1239 49.9846 71.9623 49.7328C73.8007 49.4809 74.9466 49.4935 76.2561 49.4684C77.5657 49.4432 79.1774 50.1987 79.9203 50.3624C80.6633 50.5261 82.1365 51.2816 82.8039 52.0749C83.4712 52.8682 84.1008 53.7244 83.8112 54.1903C83.5342 54.6562 82.678 55.3613 80.3736 55.4495C78.0693 55.5376 75.2236 54.9584 73.3474 55.0717C71.4838 55.1725 68.1218 55.2102 67.3033 55.1221C66.4848 55.034 66.0567 54.8828 66.0567 54.8828C66.0567 54.8828 65.062 54.8828 64.3442 55.3362C63.6391 55.7895 62.9465 55.2102 62.9465 55.2102Z" fill="#5D7333"/>
<path d="M69.2048 48.5365C69.2929 47.2522 69.3559 46.6352 69.5196 45.4264C69.5196 45.4264 68.7893 45.0234 68.4241 44.4316C68.0589 43.8398 68.1093 39.7223 68.7767 37.9846C69.444 36.2469 70.0107 35.2647 70.6151 34.1063C71.2195 32.9478 72.6675 31.9027 73.1712 31.3361C73.6749 30.7695 75.0474 29.8502 76.0673 29.6488C77.0873 29.4473 78.1324 29.3214 78.4094 29.7873C78.6864 30.2658 78.8879 31.3487 77.8428 33.4137C76.8103 35.4788 74.9215 37.695 74.103 39.3697C73.2845 41.057 71.698 44.0161 71.2195 44.6834C70.741 45.3634 70.4136 45.6656 70.4136 45.6656C70.4136 45.6656 69.9351 46.5344 69.9855 47.3781C70.0484 48.2092 69.2048 48.5365 69.2048 48.5365Z" fill="#5D7333"/>
<path d="M54.3843 37.8083C54.3717 36.0455 54.3843 35.1766 54.4724 33.5145C54.4724 33.5145 53.4273 33.0486 52.8607 32.2679C52.294 31.4872 51.9037 25.846 52.634 23.3906C53.3517 20.9352 54.0191 19.5249 54.7242 17.8628C55.4294 16.2007 57.293 14.6141 57.91 13.7705C58.5396 12.9394 60.315 11.5165 61.6875 11.1262C63.0726 10.7358 64.4829 10.4462 64.9236 11.0632C65.3518 11.6802 65.7421 13.1535 64.5585 16.0874C63.3623 19.0339 61.0328 22.27 60.101 24.675C59.1692 27.0801 57.3182 31.3109 56.7389 32.2805C56.1597 33.2627 55.7316 33.716 55.7316 33.716C55.7316 33.716 55.165 34.9626 55.3413 36.1084C55.5175 37.2543 54.3843 37.8083 54.3843 37.8083Z" fill="#88A94B"/>
<path d="M70.1492 11.5417C71.018 9.76624 71.4587 8.90999 72.3779 7.28565C72.3779 7.28565 71.7106 6.20275 71.6098 5.10726C71.5091 3.99917 74.0023 -1.86862 75.8533 -3.9211C77.7043 -5.96097 78.9886 -6.99351 80.4367 -8.2401C81.8722 -9.48669 84.2898 -10.0156 85.2468 -10.4815C86.2038 -10.9473 88.4577 -11.3503 89.8428 -10.9348C91.2279 -10.5318 92.613 -10.003 92.676 -9.13412C92.7389 -8.26529 92.3486 -6.56538 89.8428 -4.31144C87.337 -2.0575 83.698 -0.156136 81.6833 1.70746C79.6812 3.57105 75.954 6.73161 74.9718 7.38638C73.9771 8.02857 73.3853 8.24263 73.3853 8.24263C73.3853 8.24263 72.2772 9.16183 71.8365 10.421C71.3958 11.6424 70.1492 11.5417 70.1492 11.5417Z" fill="#88A94B"/>
<path d="M70.9803 22.4714C70.1366 21.3004 71.4588 18.8324 71.8113 19.5879C72.4661 20.9604 71.3076 22.9121 70.9803 22.4714Z" fill="#92993C"/>
<path d="M40.1932 26.2238C39.3495 25.0527 40.6716 22.5847 41.0242 23.3402C41.6664 24.7127 40.5079 26.6645 40.1932 26.2238Z" fill="#92993C"/>
<path d="M69.9731 12.0831C68.6888 10.9121 70.6909 8.44409 71.2323 9.1996C72.2145 10.5721 70.4642 12.5238 69.9731 12.0831Z" fill="#92993C"/>
<path d="M54.5355 38.249C53.3897 37.078 55.1777 34.61 55.6562 35.3655C56.5376 36.738 54.9636 38.6897 54.5355 38.249Z" fill="#92993C"/>
<path d="M68.399 49.6573C67.2532 48.4862 69.0412 46.0182 69.5197 46.7737C70.4011 48.1588 68.8398 50.1106 68.399 49.6573Z" fill="#92993C"/>
<path d="M31.4166 43.8523C30.2708 42.6813 32.0588 40.2133 32.5373 40.9688C33.4187 42.3539 31.8573 44.3056 31.4166 43.8523Z" fill="#92993C"/>
<path d="M32.5878 59.9448C30.9508 59.907 30.5227 56.885 31.379 57.0864C32.9781 57.4768 33.2048 59.97 32.5878 59.9448Z" fill="#92993C"/>
<path d="M45.9479 72.6625C44.3109 72.6247 43.8828 69.6027 44.7391 69.8041C46.3382 70.1945 46.5649 72.6877 45.9479 72.6625Z" fill="#92993C"/>
<path d="M45.5195 75.4957C44.5625 74.1735 46.7031 71.9952 47.0683 72.8136C47.7231 74.3121 45.8847 75.9994 45.5195 75.4957Z" fill="#92993C"/>
<path d="M45.5449 81.1117C44.5879 79.7895 46.7285 77.6111 47.0937 78.4296C47.7485 79.928 45.91 81.6279 45.5449 81.1117Z" fill="#92993C"/>
<path d="M62.4429 56.8724C62.1533 55.2606 65.0242 54.2281 64.999 55.1221C64.9487 56.7464 62.5562 57.4894 62.4429 56.8724Z" fill="#92993C"/>
<path d="M65.4273 78.0896C65.1377 76.4778 68.0086 75.4453 67.9834 76.3393C67.933 77.9637 65.5406 78.7066 65.4273 78.0896Z" fill="#92993C"/>
<path d="M39.0724 95.6426C39.362 94.0309 36.4911 92.9983 36.5163 93.8924C36.5666 95.5293 38.9591 96.2596 39.0724 95.6426Z" fill="#92993C"/>
<path d="M41.7546 111.899C42.6989 110.551 40.5206 108.423 40.168 109.242C39.5258 110.753 41.402 112.415 41.7546 111.899Z" fill="#92993C"/>
<path d="M60.3399 143.064C59.937 141.477 56.8898 141.729 57.2927 142.535C58.0105 143.995 60.491 143.668 60.3399 143.064Z" fill="#92993C"/>
<path d="M96.9194 164.696C97.7127 163.135 93.444 161.737 93.2929 162.619C93.0411 164.256 96.6298 165.288 96.9194 164.696Z" fill="#92993C"/>
<path d="M101.679 167.076C102.472 165.515 98.2038 164.117 98.0527 164.999C97.7883 166.623 101.377 167.668 101.679 167.076Z" fill="#92993C"/>
<path d="M111.74 166.799C112.534 165.238 108.265 163.84 108.114 164.721C107.849 166.358 111.438 167.391 111.74 166.799Z" fill="#92993C"/>
<path d="M159.564 182.262C158.846 180.675 155.081 183.118 155.673 183.786C156.781 185.007 159.841 182.866 159.564 182.262Z" fill="#92993C"/>
<path d="M161.251 179.064C161.037 177.326 156.706 178.547 157.083 179.353C157.776 180.852 161.327 179.718 161.251 179.064Z" fill="#92993C"/>
<path d="M176.563 160.402C175.644 159.307 173.226 162.077 173.843 162.468C174.989 163.185 176.916 160.818 176.563 160.402Z" fill="#92993C"/>
<path d="M179.421 172.365C178.502 171.269 176.085 174.039 176.702 174.43C177.847 175.148 179.774 172.78 179.421 172.365Z" fill="#92993C"/>
</g>
<path d="M59.7739 38.2616C59.4842 38.8282 59.0309 39.4074 58.3006 39.76C57.5577 40.1126 53.9061 40.44 54.0823 36.6372C54.2586 32.8345 59.9501 33.7159 59.9753 36.0454C59.9879 37.3802 59.9375 37.9216 59.7739 38.2616Z" fill="#E4DFC5"/>
<path d="M73.6247 13.6445C73.3351 14.2112 72.8818 14.7904 72.1514 15.143C71.4085 15.4956 67.7569 15.8229 67.9332 12.0202C68.1095 8.21747 73.801 9.09889 73.8262 11.4284C73.8388 12.7631 73.7884 13.292 73.6247 13.6445Z" fill="#E4DFC5"/>
<path d="M62.7201 2.56374C62.4305 3.13037 61.9772 3.7096 61.2469 4.06217C60.504 4.41474 56.8523 4.74213 57.0286 0.939391C57.2049 -2.86335 62.8964 -1.98191 62.9216 0.347577C62.9468 1.68231 62.8964 2.22376 62.7201 2.56374Z" fill="#E4DFC5"/>
<path d="M53.8554 41.2206C53.5658 41.7873 53.1125 42.3665 52.3822 42.7191C51.6392 43.0716 47.9876 43.399 48.1639 39.5963C48.3402 35.7935 54.0317 36.675 54.0569 39.0045C54.0821 40.3392 54.0317 40.8807 53.8554 41.2206Z" fill="#E4DFC5"/>
<path d="M35.8493 68.4317C35.5597 68.9983 35.1064 69.5776 34.3761 69.9301C33.6331 70.2827 29.9815 70.6101 30.1578 66.8073C30.3341 63.0046 36.0256 63.886 36.0508 66.2155C36.0634 67.5503 36.013 68.0917 35.8493 68.4317Z" fill="#E4DFC5"/>
<path d="M32.8901 43.0214C32.6005 43.588 32.1472 44.1672 31.4168 44.5198C30.6739 44.8724 27.0223 45.1997 27.1986 41.397C27.3748 37.5943 33.0664 38.4757 33.0915 40.8052C33.1167 42.1399 33.0664 42.6688 32.8901 43.0214Z" fill="#E4DFC5"/>
<path d="M40.5207 96.4989C40.2311 97.0655 39.7778 97.6447 39.0474 97.9973C38.3045 98.3499 34.6529 98.6773 34.8292 94.8745C35.0055 91.0718 40.697 91.9532 40.7222 94.2827C40.7473 95.6049 40.697 96.1463 40.5207 96.4989Z" fill="#E4DFC5"/>
<path d="M51.8283 76.9186C51.5387 77.4852 51.0854 78.0644 50.3551 78.417C49.6121 78.7696 45.9605 79.097 46.1368 75.2942C46.3131 71.4915 52.0046 72.3729 52.0298 74.7024C52.055 76.0371 52.0046 76.566 51.8283 76.9186Z" fill="#E4DFC5"/>
<path d="M111.674 39.0423C112.177 37.9091 111.296 35.0129 110.918 31.865C110.54 28.717 110.289 13.8335 110.163 10.1944C110.037 6.54278 108.652 -2.91369 109.281 -4.17288C109.911 -5.43206 112.064 -5.6839 113.197 -4.80247C114.331 -3.92104 117.353 2.63931 117.73 4.27625C118.108 5.92578 117.73 10.0811 117.73 10.0811C117.73 10.0811 118.36 7.56273 118.486 6.55538C118.612 5.54803 119.241 1.75788 120.135 -2.77518C121.017 -7.30824 123.661 -8.44151 124.794 -7.93784C125.928 -7.43417 126.431 -3.90845 126.935 -2.14559C127.439 -0.382729 126.935 4.03701 126.935 4.03701C126.935 4.03701 128.446 -0.886405 128.711 -1.50341C128.95 -2.133 130.725 -4.02177 132.866 -4.2862C135.006 -4.52545 134.881 -2.9011 135.132 -0.621976C135.384 1.64456 134.377 7.70124 134.377 7.70124C134.377 7.70124 135.888 3.67184 136.392 3.04225C136.895 2.41266 139.036 1.90898 139.804 1.77047C140.547 1.64455 141.945 3.54592 143.065 6.80721C144.198 10.0937 143.065 13.8586 143.065 13.8586C143.065 13.8586 144.841 12.9772 146.226 13.8586C147.611 14.7401 148.492 18.5302 148.379 20.0412C148.253 21.5523 148.379 23.2018 148.379 23.2018C150.016 22.5722 151.64 23.2018 152.648 26.2238C153.655 29.2459 151.905 31.2606 151.905 31.2606C151.905 31.2606 151.905 31.2606 153.151 32.142C154.423 33.0234 154.285 33.9049 154.662 37.1787C154.902 39.269 154.234 39.9741 153.705 40.2134C154.133 40.1378 154.7 40.1126 154.927 40.3393C155.304 40.7171 155.67 42.7317 156.073 43.9909C156.476 45.2501 155.43 46.6352 155.04 47.4033C154.662 48.1462 153.139 48.9017 153.139 48.9017C153.139 48.9017 153.642 49.0277 154.272 48.9143C154.902 48.7884 155.153 50.5513 156.06 51.1683C156.967 51.7979 156.161 55.0843 156.06 55.7013C155.972 56.2806 153.642 57.1368 153.202 57.3005C153.453 57.2375 154.398 57.0361 155.153 57.4768C156.035 57.9805 156.287 56.9731 156.664 57.4768C157.03 57.9553 156.702 59.4789 156.677 59.63C156.753 59.4915 157.357 58.3456 158.062 58.2323C158.818 58.1064 158.944 59.3656 158.994 61.0529C157.231 61.8084 154.196 67.2481 150.998 68.8346C147.812 70.4212 136.719 77.0571 134.704 77.9134C132.69 78.7444 126.985 76.8934 125.626 76.2386C124.291 75.5587 116.723 70.0183 115.602 66.3037C115.602 66.3037 115.338 63.9112 115.476 62.652C115.602 61.3929 114.721 60.247 114.343 58.2323C113.965 56.2176 113.965 55.4747 112.832 54.4673C111.699 53.46 109.936 48.9269 109.143 46.396C108.324 43.8398 111.17 40.1882 111.674 39.0423Z" fill="#F7F8F9"/>
<path d="M81.4785 67.0592C81.7052 67.6258 83.9088 66.14 84.7272 65.9511C85.5457 65.7622 90.2173 64.6038 93.403 68.0414C96.5762 71.4664 100.014 76.9186 101.651 82.3961C103.3 87.8861 103.993 90.4045 108.841 96.1967C113.688 101.989 117.718 106.849 119.43 108.298C121.13 109.746 130.952 114.593 133.609 115.991C136.266 117.376 134.994 119.706 138.52 121.594C142.045 123.496 144.06 124.428 145.395 125.007C146.717 125.574 147.158 126.644 148.48 126.014C149.802 125.385 150.746 124.428 151.502 124.818C152.257 125.196 152.635 125.699 153.202 125.951C153.768 126.203 153.579 125.523 154.398 126.216C155.216 126.896 155.783 126.392 156.224 126.845C156.652 127.273 161.198 133.091 162.142 135.42C163.086 137.75 168.186 144.751 168.941 145.192C169.697 145.62 169.76 145.255 169.949 145.192C169.949 145.192 174.117 150.417 174.797 150.165C175.489 149.914 174.557 149.032 174.797 148.843C175.061 148.654 176.95 151.299 178.146 151.928C179.33 152.558 179.405 152.117 179.72 152.306C180.035 152.482 181.798 154.006 181.861 153.313C181.936 152.621 180.35 148.528 181.181 148.528C181.999 148.528 183.573 149.725 184.014 149.347C184.455 148.969 184.644 149.158 185.21 149.095C185.777 149.032 186.847 149.158 186.595 148.528C186.343 147.899 184.14 144.927 184.644 144.688C185.147 144.424 185.84 145.368 186.633 145.066C187.414 144.751 188.61 144.814 187.98 143.869C187.351 142.925 184.82 139.903 184.82 139.903C184.82 139.903 186.155 140.671 186.52 140.092C186.897 139.525 186.96 138.14 186.772 137.762C186.583 137.385 184.568 135.118 184.316 135.055C184.064 134.992 184.064 131.152 177.894 127.185C171.712 123.219 164.849 118.308 164.597 117.552C164.345 116.797 158.667 102.933 152.56 97.4433L152.333 96.6123C152.333 96.6123 153.177 97.3678 153.68 97.1159C154.184 96.8641 153.252 96.1841 154.688 96.776C156.11 97.3678 157.798 98.287 158.553 98.0351C159.309 97.7833 159.561 96.6123 160.744 96.7004C161.915 96.776 162.079 97.5315 162.923 97.3804C163.766 97.2041 164.685 97.4559 165.277 96.9522C165.857 96.4486 165.781 93.2502 165.781 93.2502C165.781 93.2502 166.7 95.9449 167.796 96.0204C168.879 96.1086 170.654 96.8641 171.485 97.2796C172.329 97.7078 173.588 98.287 173.676 96.0204C173.676 96.0204 175.779 96.776 176.786 96.6123C177.794 96.436 177.718 96.0204 177.466 94.7613C177.214 93.5021 177.139 91.9029 177.139 91.9029C177.139 91.9029 180.073 94.7613 181.332 94.925C182.591 95.1012 183.183 94.8494 183.347 93.7413C183.523 92.6584 182.087 91.8903 182.427 91.0593C182.755 90.2156 182.591 90.883 183.687 91.3111C184.769 91.7266 185.449 92.4821 185.953 92.1422C186.457 91.8148 187.288 90.9585 186.96 90.3793C186.62 89.8001 185.865 88.9438 186.62 88.7801C187.376 88.6039 188.22 89.863 188.975 89.6993C189.731 89.5357 190.574 89.032 190.65 88.0246C190.738 87.0173 190.398 86.5892 190.65 86.5136C190.902 86.4255 191.909 86.7654 192.501 86.5892C193.08 86.4129 194.012 85.33 193.76 84.8263C193.508 84.3226 193.798 83.5671 193.798 83.5671C193.798 83.5671 194.516 83.9952 195.183 83.5671C195.863 83.139 196.442 82.7361 196.367 81.968C196.291 81.2124 195.636 80.9606 196.379 80.7843C197.122 80.608 199.061 79.097 199.061 77.5104C199.061 77.0823 198.973 76.8305 198.86 76.692C198.923 76.692 198.986 76.6794 199.061 76.6668C200.232 76.4905 202.335 75.8861 202.927 73.9218C203.506 71.9574 202.096 71.1138 202.927 70.8619C203.758 70.6101 205.118 70.0183 206.201 68.3436C207.284 66.6563 206.276 64.8179 207.133 64.3897C207.964 63.9616 210.998 62.0351 211.502 59.5167C212.006 56.9983 210.671 56.2428 210.822 55.8147C210.998 55.3866 214.688 51.2816 214.524 49.8462C214.348 48.4233 213.013 48.1714 213.265 47.6678C213.517 47.1641 217.382 42.7821 216.791 40.8682C216.211 38.929 213.517 40.5282 213.089 40.8682C213.089 40.8682 215.191 37.8461 215.859 35.227C216.539 32.6205 217.294 30.5303 215.783 30.1903C214.272 29.8629 213.013 30.1903 213.013 30.1903C213.013 30.1903 216.375 24.4862 214.524 20.1042C214.524 20.1042 213.265 18.1777 211.577 20.1042C211.577 20.1042 212.169 16.5785 211.25 15.4075C211.25 15.4075 210.243 15.0675 209.235 18.1777C208.228 21.2878 202.184 30.5303 200.333 31.865C200.333 31.865 199.905 30.6814 200.749 29.5985C201.592 28.5156 204.778 24.6373 207.901 13.7957C207.901 13.7957 208.48 11.5292 207.309 13.2165C206.138 14.9038 198.658 28.9185 196.971 30.0266C196.971 30.0266 195.712 30.2784 196.467 29.0948C197.223 27.9112 200.245 21.4515 200.421 20.0161C200.597 18.5806 200.925 16.8177 200.749 16.5659C200.585 16.3141 198.646 19.5124 194.793 28.503C190.927 37.481 187.565 40.1001 183.611 44.2932C179.67 48.4988 160.769 60.2596 159.007 61.0151C157.244 61.7706 153.038 64.5408 149.84 66.14C146.654 67.7266 136.48 74.0351 134.465 74.8787C132.45 75.7098 128.257 75.0424 126.91 74.3751C125.575 73.6951 117.844 67.9658 115.615 66.2533C112.442 63.8483 109.067 60.587 105.529 57.565C102.003 54.5429 93.466 52.2008 89.7766 56.5576C88.8951 57.5901 87.0945 60.0204 86.339 60.4989C85.5835 60.9773 85.4324 61.5692 84.7021 62.3876C83.9717 63.2061 82.2718 63.9994 81.9948 64.566C81.68 65.1327 81.2645 66.4926 81.4785 67.0592Z" fill="#EEF2F4"/>
<path d="M86.3389 65.3845C87.4092 65.1579 88.5929 63.4076 89.0588 62.9921C89.5247 62.5765 90.1542 62.0729 90.4816 61.9469C90.8216 61.821 91.5771 61.481 91.3631 61.0277C91.149 60.5618 90.5698 60.8389 90.3935 61.2544C90.2298 61.6699 88.958 62.2114 88.7566 62.3373C88.5551 62.4632 88.7188 61.481 88.001 61.2544C87.2833 61.0277 85.8982 60.864 85.1805 61.6699C84.4627 62.4632 82.7502 63.7224 82.0703 64.0246C81.4029 64.3142 80.937 65.523 81.0629 67.0844C81.1889 68.6332 81.6296 67.3488 82.171 67.437C82.5991 67.4748 86.3263 65.3845 86.3389 65.3845Z" fill="#EED4D8"/>
<path d="M92.9497 59.7181C93.0756 59.4285 93.4912 58.2071 94.3348 57.439L94.3474 57.4264C94.7755 56.9101 95.4177 56.5702 96.1355 56.5702C96.4754 56.5702 96.8028 56.6457 97.105 56.7842C97.105 56.7842 97.105 56.7842 97.1176 56.7842C98.4775 56.9605 99.1701 58.3582 98.8301 59.7055C98.5531 60.8136 97.3694 61.0528 96.6769 61.1662C96.5888 61.1914 96.5006 61.1914 96.4125 61.204C96.3747 61.204 96.3369 61.2165 96.3117 61.2165C96.274 61.2291 96.2236 61.2165 96.1858 61.2291C96.1732 61.2291 96.1606 61.2291 96.148 61.2291C96.148 61.2291 96.148 61.2291 96.1355 61.2291C95.5562 61.2417 94.423 60.9395 94.0452 60.6373C93.6171 60.3099 92.8238 60.0077 92.9497 59.7181Z" fill="#85705F"/>
<path d="M136.14 119.215C136.14 119.215 134.767 120.373 134.327 120.184C133.886 119.995 133.533 119.555 132.74 119.706C131.934 119.869 130.297 121.129 129.919 121.506C129.542 121.884 128.849 122.451 128.597 122.891C128.346 123.332 127.968 124.654 128.597 125.41C129.227 126.165 130.549 126.984 130.99 127.424C131.431 127.865 131.254 128.495 132.199 128.936C133.13 129.376 134.138 126.354 134.138 126.354C134.138 126.354 133.319 125.599 133.319 125.347C133.319 125.095 132.69 124.541 133.319 124.1C133.949 123.66 135.334 123.332 135.775 123.458C136.215 123.584 136.933 124.579 136.933 124.579L137.978 124.402C137.978 124.402 137.223 122.879 137.349 122.501C137.475 122.136 137.978 121.28 137.978 121.28L136.14 119.215Z" fill="#B77F84"/>
<path d="M145.546 125.108C144.35 125.611 143.72 125.8 142.65 126.241C141.579 126.682 142.272 127.122 142.65 127.5C143.028 127.878 144.224 128.256 144.224 128.759C144.224 129.263 144.224 129.263 144.224 129.263C144.224 129.263 144.602 129.137 144.727 130.081C144.853 131.026 144.476 131.781 143.808 132.159C143.808 132.159 144.664 131.278 144.35 130.963C144.035 130.648 144.224 130.774 143.808 130.774C143.405 130.774 142.196 129.893 142.071 129.641C141.945 129.389 141.504 128.885 141.126 128.633C140.748 128.382 140.245 128.319 139.363 128.633C138.482 128.948 137.537 128.633 137.537 129.263C137.537 129.893 138.608 131.278 138.986 131.341C139.363 131.404 139.615 131.026 139.867 131.718C140.119 132.411 139.867 132.726 140.622 132.726C141.378 132.726 141.542 132.726 141.542 132.726C141.542 132.726 140.811 133.544 140.497 133.544C140.497 133.544 140.874 134.048 140.56 134.552C140.56 134.552 140.622 135.055 141 135.244C141.378 135.433 141.504 135.811 142.071 135.685C142.071 135.685 141.567 136.428 139.678 135.71C139.678 135.71 138.545 135.811 137.978 135.307C137.412 134.803 135.901 133.229 135.586 132.852C135.586 132.852 134.893 133.041 134.515 132.6C134.138 132.159 132.564 130.27 132.753 129.389C132.941 128.507 132.74 128.382 132.74 128.382C132.74 128.382 133.193 127.185 133.886 126.808C133.886 126.808 134.704 125.045 136.026 124.793C137.349 124.541 137.349 124.478 137.537 124.226C137.726 123.974 136.656 124.1 136.593 123.848C136.53 123.597 136.719 123.03 137.412 123.282C138.104 123.534 138.797 124.037 139.552 124.037C140.308 124.037 140.736 124.251 140.748 123.534C140.761 122.816 140.081 122.463 140.207 122.526C140.345 122.589 145.546 125.108 145.546 125.108Z" fill="#D88F9E"/>
<path d="M94.7797 183.59C94.7796 183.59 94.7794 183.59 94.7796 183.59L94.7799 183.59L94.78 183.59L94.7797 183.59Z" fill="url(#paint0_linear_69_580)"/>
<path d="M140.207 132.65C139.691 133.305 140.673 133.783 140.963 133.645C141.151 133.569 141.214 133.091 141.378 132.915C141.479 132.801 141.542 132.726 141.542 132.726L140.207 132.65Z" fill="url(#paint1_linear_69_580)"/>
<path d="M143.959 130.774C143.682 130.321 142.939 129.389 144.06 129.276C145.181 129.162 145.659 130.736 144.664 131.869C143.67 133.003 143.456 131.869 143.456 131.869L143.959 130.774Z" fill="url(#paint2_linear_69_580)"/>
<defs>
<linearGradient id="paint0_linear_69_580" x1="94.78" y1="183.59" x2="94.7795" y2="183.59" gradientUnits="userSpaceOnUse">
<stop stop-color="white"/>
<stop offset="1" stop-color="#88501B"/>
</linearGradient>
<linearGradient id="paint1_linear_69_580" x1="141.549" y1="133.164" x2="140.063" y2="133.164" gradientUnits="userSpaceOnUse">
<stop stop-color="white"/>
<stop offset="1" stop-color="#88501B"/>
</linearGradient>
<linearGradient id="paint2_linear_69_580" x1="145.214" y1="130.817" x2="143.469" y2="130.817" gradientUnits="userSpaceOnUse">
<stop stop-color="#88501B"/>
<stop offset="0.1745" stop-color="#8A531F"/>
<stop offset="0.3408" stop-color="#915D2A"/>
<stop offset="0.5039" stop-color="#9D6D3E"/>
<stop offset="0.665" stop-color="#AD8359"/>
<stop offset="0.8247" stop-color="#C2A07B"/>
<stop offset="0.9812" stop-color="#DCC2A5"/>
<stop offset="1" stop-color="#DFC7AB"/>
</linearGradient>
</defs>
</svg>
