<svg width="60" height="60" viewBox="0 0 60 60" fill="none" xmlns="http://www.w3.org/2000/svg">
<g filter="url(#filter0_d_69_568)">
<circle cx="30" cy="26" r="24" fill="#FE7940"/>
<circle cx="30" cy="26" r="23" stroke="white" stroke-width="2"/>
</g>
<g clip-path="url(#clip0_69_568)">
<path d="M36.4032 25.6222V26.0903C36.4032 28.4355 35.2383 30.6124 33.287 31.9134L31.4088 33.1654V33.6372H32.2965C32.7256 33.6372 33.0736 33.9851 33.0736 34.4143C33.0736 34.8435 32.7256 35.1914 32.2965 35.1914H31.4088V36.9115C31.4088 37.3407 31.0609 37.6886 30.6317 37.6886C30.2025 37.6886 29.8545 37.3407 29.8545 36.9115V35.1914H28.9669C28.5377 35.1914 28.1898 34.8435 28.1898 34.4143C28.1898 33.9851 28.5377 33.6372 28.9669 33.6372H29.8545V33.1654L27.9765 31.9134C26.0251 30.6124 24.8601 28.4355 24.8601 26.0903V25.6222C20.5045 28.0516 19.8657 32.4518 19.8657 34.1714V37.8544C19.8657 38.2836 20.2137 38.6316 20.6429 38.6316H40.6205C41.0497 38.6316 41.3976 38.2836 41.3976 37.8544V34.1714C41.3976 32.4501 40.7579 28.051 36.4032 25.6222Z" fill="white"/>
<path d="M30.6315 25.2026C30.3304 25.2026 30.0342 25.1815 29.7439 25.1417V26.978H31.5192V25.1417C31.2289 25.1815 30.9327 25.2026 30.6315 25.2026Z" fill="white"/>
<path d="M27.4003 24.3399L26.4146 24.8328V26.0902C26.4146 27.9147 27.3208 29.6081 28.8388 30.6202L30.6318 31.8155L32.4249 30.6201C33.9428 29.608 34.8491 27.9147 34.8491 26.0902V24.8328L33.8633 24.3399C33.6104 24.4856 33.3466 24.6144 33.0737 24.7255V27.755C33.0737 28.1842 32.7258 28.5322 32.2966 28.5322H28.967C28.5378 28.5322 28.1898 28.1842 28.1898 27.755V24.7255C27.9171 24.6144 27.6533 24.4857 27.4003 24.3399Z" fill="white"/>
<path d="M30.6318 23.6483C33.3552 23.6483 35.5709 21.4327 35.5709 18.7092V17.0444C35.5709 14.321 33.3552 12.1053 30.6318 12.1053C27.9083 12.1053 25.6926 14.321 25.6926 17.0444V18.7092C25.6926 21.4327 27.9083 23.6483 30.6318 23.6483Z" fill="white"/>
</g>
<defs>
<filter id="filter0_d_69_568" x="0" y="0" width="60" height="60" filterUnits="userSpaceOnUse" color-interpolation-filters="sRGB">
<feFlood flood-opacity="0" result="BackgroundImageFix"/>
<feColorMatrix in="SourceAlpha" type="matrix" values="0 0 0 0 0 0 0 0 0 0 0 0 0 0 0 0 0 0 127 0" result="hardAlpha"/>
<feOffset dy="4"/>
<feGaussianBlur stdDeviation="3"/>
<feColorMatrix type="matrix" values="0 0 0 0 0.505882 0 0 0 0 0.388235 0 0 0 0 0.839216 0 0 0 0.3 0"/>
<feBlend mode="normal" in2="BackgroundImageFix" result="effect1_dropShadow_69_568"/>
<feBlend mode="normal" in="SourceGraphic" in2="effect1_dropShadow_69_568" result="shape"/>
</filter>
<clipPath id="clip0_69_568">
<rect width="26.5263" height="26.5263" fill="white" transform="translate(17.3684 12.1053)"/>
</clipPath>
</defs>
</svg>
